# xmcd
#
# Track frame offsets: 
#        150
#        17119
#        34168
#        49082
#        65798
#        82724
#        101930
#        119477
#        133682
#        152514
#        174301
#        192305
#        207160
#
# Disc length: 2985 seconds
#
# Revision: 4
# Processed by: cddbd v1.5PL3 Copyright (c) Steve Scherf et al.
# Submitted via: ExactAudioCopy v0.95a4
#
DISCID=b00ba70d
DTITLE=Shakira - Laundry Service
DYEAR=2001
DGENRE=Pop
TTITLE0=Objection (Tango)
TTITLE1=Underneath Your Clothes
TTITLE2=Whenever, Wherever
TTITLE3=Rules
TTITLE4=The One
TTITLE5=Ready for the Good Times
TTITLE6=Fool
TTITLE7=Te Dejo Madrid
TTITLE8=Poem to a Horse
TTITLE9=Que Me Quedes Tú
TTITLE10=Eyes Like Yours (Ojos Asi)
TTITLE11=Suerte (Whenever, Wherever)
TTITLE12=Te Aviso, Te Anuncio (Tango)
EXTD=
EXTT0=
EXTT1=
EXTT2=
EXTT3=
EXTT4=
EXTT5=
EXTT6=
EXTT7=
EXTT8=
EXTT9=
EXTT10=
EXTT11=
EXTT12=
PLAYORDER=
